<?xml version="1.0" encoding="utf-8"?>
<!-- Generator: Adobe Illustrator 27.0.1, SVG Export Plug-In . SVG Version: 6.00 Build 0)  -->
<svg version="1.1" id="Слой_1" xmlns="http://www.w3.org/2000/svg" xmlns:xlink="http://www.w3.org/1999/xlink" x="0px" y="0px"
	 viewBox="0 0 128 128" style="enable-background:new 0 0 128 128;" xml:space="preserve">
<style type="text/css">
	.st0{fill:#BE8D62;}
	.st1{fill:#755132;}
	.st2{fill:#1E2533;}
</style>
<g id="layer1">
	<path class="st0" d="M119.56,61.21c-10.54,3.31-21.87-1.12-27.39-10.69c-2.47-4.29-3.55-9.24-3.05-14.16
		c0.29-2.77-1.65-5.28-4.4-5.71c-7.02-1.1-13.15-5.3-16.7-11.46c-2.18-3.78-3.25-8.1-3.12-12.46c0.1-3.09-2.51-5.58-5.59-5.36
		c-9.5,0.67-18.72,3.49-26.97,8.26C2.4,26.91-7.9,65.33,9.39,95.27c17.29,29.94,55.74,40.28,85.68,22.99
		c20.48-11.82,30.23-33.78,31.29-51.89C126.47,62.77,123.01,60.13,119.56,61.21z"/>
	
		<ellipse transform="matrix(0.3827 -0.9239 0.9239 0.3827 -34.3344 80.9043)" class="st1" cx="43.37" cy="66.14" rx="15.37" ry="15.37"/>
	<path class="st2" d="M119.56,61.21c-10.54,3.31-21.87-1.12-27.39-10.69c-2.47-4.29-3.55-9.24-3.05-14.16
		c0.29-2.77-1.64-5.28-4.4-5.71c-7.02-1.1-13.15-5.3-16.7-11.46c-2.18-3.78-3.25-8.1-3.12-12.46c0.1-3.09-2.51-5.58-5.59-5.36
		c-9.5,0.67-18.72,3.49-26.97,8.26C2.4,26.91-7.9,65.33,9.39,95.27c17.29,29.94,55.74,40.28,85.68,22.99
		c20.48-11.82,30.23-33.78,31.29-51.89C126.47,62.77,123.01,60.13,119.56,61.21z M89.82,109.2c-25.05,14.46-56.91,5.91-71.37-19.13
		C3.99,65.01,12.5,33.16,37.55,18.69c5.67-3.28,12.1-4.74,18.56-5.71v0C56.78,16.89,57,20.94,59,24.4
		c4.35,7.53,12.23,11.56,20.45,14.04c-0.02,6,0.65,12.05,3.66,17.28c6.48,11.23,18.82,15.8,31.32,15.16
		C112.21,86.73,103.84,101.1,89.82,109.2z"/>
	<path class="st1" d="M79.98,80.29c-6.57,0-12,5.43-12,12c0,6.57,5.43,11.97,12,11.97s11.97-5.4,11.97-11.97
		C91.95,85.72,86.55,80.29,79.98,80.29z"/>
	<polygon class="st1" points="79.98,80.29 79.98,80.29 79.98,80.29 	"/>
	<g>
		<path class="st2" d="M43.37,45.24c-11.48,0-20.91,9.43-20.91,20.91s9.43,20.91,20.91,20.91c11.48,0,20.91-9.43,20.91-20.91
			S54.86,45.24,43.37,45.24z M43.37,76.6c-5.83,0-10.45-4.62-10.45-10.45c0-5.83,4.62-10.45,10.45-10.45
			c5.83,0,10.45,4.62,10.45,10.45C53.83,71.98,49.21,76.6,43.37,76.6z"/>
		<path class="st2" d="M79.98,76.6c-8.6,0-15.7,7.1-15.7,15.7c0,8.6,7.1,15.66,15.7,15.66c8.6,0,15.66-7.07,15.66-15.66
			C95.65,83.7,88.58,76.6,79.98,76.6z M79.98,97.51c-2.95,0-5.25-2.26-5.25-5.21c0-2.95,2.3-5.25,5.25-5.25
			c2.95,0,5.21,2.3,5.21,5.25C85.19,95.25,82.93,97.51,79.98,97.51z"/>
		<path class="st2" d="M46.16,24.34c-4.42,0-8,3.58-8,8c0,4.42,3.58,8,8,8c4.42,0,8-3.58,8-8v0C54.16,27.93,50.58,24.34,46.16,24.34
			z"/>
		<path class="st2" d="M48.61,91.95L48.61,91.95c-4.42,0-8,3.58-8,8v0c0,4.42,3.58,8,8,8c4.42,0,8-3.58,8-8
			C56.61,95.54,53.03,91.95,48.61,91.95z"/>
		<path class="st2" d="M119,3.44L119,3.44c-4.42,0-8,3.58-8,8c0,4.42,3.58,8,8,8c4.42,0,8-3.58,8-8C127,7.02,123.42,3.44,119,3.44z"
			/>
		<path class="st2" d="M106.1,34.8C106.1,34.8,106.1,34.8,106.1,34.8c-2.89,0-5.23,2.34-5.23,5.23c0,2.89,2.34,5.23,5.23,5.23
			c0,0,0,0,0,0c2.89,0,5.23-2.34,5.23-5.23c0,0,0,0,0,0C111.32,37.14,108.98,34.8,106.1,34.8z"/>
		<path class="st2" d="M95.64,8.67c-2.89,0-5.23,2.34-5.23,5.23v0c0,2.89,2.34,5.23,5.23,5.23c2.89,0,5.23-2.34,5.23-5.23
			S98.53,8.67,95.64,8.67z"/>
	</g>
</g>
</svg>
